<?xml version="1.0" encoding="UTF-8" standalone="no"?>
<!DOCTYPE svg PUBLIC "-//W3C//DTD SVG 1.1//EN"
 "http://www.w3.org/Graphics/SVG/1.1/DTD/svg11.dtd">
<!-- Generated by graphviz version 2.40.1 (20161225.0304)
 -->
<!-- Title: dependencies Pages: 1 -->
<svg width="817pt" height="284pt"
 viewBox="0.00 0.00 817.00 284.00" xmlns="http://www.w3.org/2000/svg" xmlns:xlink="http://www.w3.org/1999/xlink">
<g id="graph0" class="graph" transform="scale(1 1) rotate(0) translate(4 280)">
<title>dependencies</title>
<polygon fill="#ffffff" stroke="transparent" points="-4,4 -4,-280 813,-280 813,4 -4,4"/>
<text text-anchor="start" x="383.5091" y="-42.4" font-family="sans-serif" font-weight="bold" font-size="14.00" fill="#000000">Legend</text>
<polygon fill="#ffffb3" stroke="transparent" points="170.5,-10 170.5,-30 190.5,-30 190.5,-10 170.5,-10"/>
<text text-anchor="start" x="194.129" y="-15.4" font-family="sans-serif" font-size="14.00" fill="#000000"> &#160;Declarations</text>
<polygon fill="#8dd3c7" stroke="transparent" points="283.5,-10 283.5,-30 303.5,-30 303.5,-10 283.5,-10"/>
<text text-anchor="start" x="307.2251" y="-15.4" font-family="sans-serif" font-size="14.00" fill="#000000"> &#160;Module</text>
<polygon fill="#80b1d3" stroke="transparent" points="369.5,-10 369.5,-30 389.5,-30 389.5,-10 369.5,-10"/>
<text text-anchor="start" x="393.2812" y="-15.4" font-family="sans-serif" font-size="14.00" fill="#000000"> &#160;Bootstrap</text>
<polygon fill="#fdb462" stroke="transparent" points="466.5,-10 466.5,-30 486.5,-30 486.5,-10 466.5,-10"/>
<text text-anchor="start" x="490.1732" y="-15.4" font-family="sans-serif" font-size="14.00" fill="#000000"> &#160;Providers</text>
<polygon fill="#fb8072" stroke="transparent" points="562.5,-10 562.5,-30 582.5,-30 582.5,-10 562.5,-10"/>
<text text-anchor="start" x="586.2258" y="-15.4" font-family="sans-serif" font-size="14.00" fill="#000000"> &#160;Exports</text>
<g id="clust1" class="cluster">
<title>cluster_CommonUtilityModule</title>
<polygon fill="none" stroke="#000000" stroke-dasharray="1,5" points="8,-70 8,-268 801,-268 801,-70 8,-70"/>
</g>
<g id="clust2" class="cluster">
<title>cluster_CommonUtilityModule_declarations</title>
<polygon fill="none" stroke="#000000" points="525,-78 525,-130 793,-130 793,-78 525,-78"/>
</g>
<g id="clust6" class="cluster">
<title>cluster_CommonUtilityModule_exports</title>
<polygon fill="none" stroke="#000000" points="287,-208 287,-260 561,-260 561,-208 287,-208"/>
</g>
<g id="clust8" class="cluster">
<title>cluster_CommonUtilityModule_providers</title>
<polygon fill="none" stroke="#000000" points="16,-78 16,-130 517,-130 517,-78 16,-78"/>
</g>
<!-- SampleComponent -->
<g id="node1" class="node">
<title>SampleComponent</title>
<polygon fill="#ffffb3" stroke="#000000" points="784.8258,-122 661.1742,-122 661.1742,-86 784.8258,-86 784.8258,-122"/>
<text text-anchor="middle" x="723" y="-99.8" font-family="Times,serif" font-size="14.00" fill="#000000">SampleComponent</text>
</g>
<!-- CommonUtilityModule -->
<g id="node3" class="node">
<title>CommonUtilityModule</title>
<polygon fill="#8dd3c7" stroke="#000000" points="495.2274,-187 492.2274,-191 471.2274,-191 468.2274,-187 346.7726,-187 346.7726,-151 495.2274,-151 495.2274,-187"/>
<text text-anchor="middle" x="421" y="-164.8" font-family="Times,serif" font-size="14.00" fill="#000000">CommonUtilityModule</text>
</g>
<!-- SampleComponent&#45;&gt;CommonUtilityModule -->
<g id="edge1" class="edge">
<title>SampleComponent&#45;&gt;CommonUtilityModule</title>
<path fill="none" stroke="#000000" d="M723,-122.2843C723,-143.3211 723,-175 723,-175 723,-175 505.2643,-175 505.2643,-175"/>
<polygon fill="#000000" stroke="#000000" points="505.2643,-171.5001 495.2643,-175 505.2643,-178.5001 505.2643,-171.5001"/>
</g>
<!-- SampleDirective -->
<g id="node2" class="node">
<title>SampleDirective</title>
<polygon fill="#ffffb3" stroke="#000000" points="643.0758,-122 532.9242,-122 532.9242,-86 643.0758,-86 643.0758,-122"/>
<text text-anchor="middle" x="588" y="-99.8" font-family="Times,serif" font-size="14.00" fill="#000000">SampleDirective</text>
</g>
<!-- SampleDirective&#45;&gt;CommonUtilityModule -->
<g id="edge2" class="edge">
<title>SampleDirective&#45;&gt;CommonUtilityModule</title>
<path fill="none" stroke="#000000" d="M543.1874,-122.0225C543.1874,-139.3734 543.1874,-163 543.1874,-163 543.1874,-163 505.2464,-163 505.2464,-163"/>
<polygon fill="#000000" stroke="#000000" points="505.2464,-159.5001 495.2464,-163 505.2464,-166.5001 505.2464,-159.5001"/>
</g>
<!-- SampleComponent  -->
<g id="node4" class="node">
<title>SampleComponent </title>
<polygon fill="#fb8072" stroke="#000000" points="553.3255,-252 426.6745,-252 426.6745,-216 553.3255,-216 553.3255,-252"/>
<text text-anchor="middle" x="490" y="-229.8" font-family="Times,serif" font-size="14.00" fill="#000000">SampleComponent </text>
</g>
<!-- CommonUtilityModule&#45;&gt;SampleComponent  -->
<g id="edge3" class="edge">
<title>CommonUtilityModule&#45;&gt;SampleComponent </title>
<path fill="none" stroke="#000000" stroke-dasharray="5,2" d="M460.8505,-187.1061C460.8505,-187.1061 460.8505,-205.991 460.8505,-205.991"/>
<polygon fill="#000000" stroke="#000000" points="457.3505,-205.9909 460.8505,-215.991 464.3505,-205.991 457.3505,-205.9909"/>
</g>
<!-- SampleDirective  -->
<g id="node5" class="node">
<title>SampleDirective </title>
<polygon fill="#fb8072" stroke="#000000" points="408.5766,-252 295.4234,-252 295.4234,-216 408.5766,-216 408.5766,-252"/>
<text text-anchor="middle" x="352" y="-229.8" font-family="Times,serif" font-size="14.00" fill="#000000">SampleDirective </text>
</g>
<!-- CommonUtilityModule&#45;&gt;SampleDirective  -->
<g id="edge4" class="edge">
<title>CommonUtilityModule&#45;&gt;SampleDirective </title>
<path fill="none" stroke="#000000" stroke-dasharray="5,2" d="M377.8371,-187.1061C377.8371,-187.1061 377.8371,-205.991 377.8371,-205.991"/>
<polygon fill="#000000" stroke="#000000" points="374.3372,-205.9909 377.8371,-215.991 381.3372,-205.991 374.3372,-205.9909"/>
</g>
<!-- JSONUtilityService -->
<g id="node6" class="node">
<title>JSONUtilityService</title>
<ellipse fill="#fdb462" stroke="#000000" cx="421" cy="-104" rx="88.0538" ry="18"/>
<text text-anchor="middle" x="421" y="-99.8" font-family="Times,serif" font-size="14.00" fill="#000000">JSONUtilityService</text>
</g>
<!-- JSONUtilityService&#45;&gt;CommonUtilityModule -->
<g id="edge5" class="edge">
<title>JSONUtilityService&#45;&gt;CommonUtilityModule</title>
<path fill="none" stroke="#000000" d="M421,-122.1061C421,-122.1061 421,-140.991 421,-140.991"/>
<polygon fill="#000000" stroke="#000000" points="417.5001,-140.9909 421,-150.991 424.5001,-140.991 417.5001,-140.9909"/>
</g>
<!-- JSONCommons -->
<g id="node7" class="node">
<title>JSONCommons</title>
<ellipse fill="#fdb462" stroke="#000000" cx="241" cy="-104" rx="73.6177" ry="18"/>
<text text-anchor="middle" x="241" y="-99.8" font-family="Times,serif" font-size="14.00" fill="#000000">JSONCommons</text>
</g>
<!-- JSONCommons&#45;&gt;CommonUtilityModule -->
<g id="edge6" class="edge">
<title>JSONCommons&#45;&gt;CommonUtilityModule</title>
<path fill="none" stroke="#000000" d="M305.0103,-113.2188C305.0103,-129.8125 305.0103,-163 305.0103,-163 305.0103,-163 336.8853,-163 336.8853,-163"/>
<polygon fill="#000000" stroke="#000000" points="336.8853,-166.5001 346.8853,-163 336.8852,-159.5001 336.8853,-166.5001"/>
</g>
<!-- CommonOps -->
<g id="node8" class="node">
<title>CommonOps</title>
<ellipse fill="#fdb462" stroke="#000000" cx="87" cy="-104" rx="62.5837" ry="18"/>
<text text-anchor="middle" x="87" y="-99.8" font-family="Times,serif" font-size="14.00" fill="#000000">CommonOps</text>
</g>
<!-- CommonOps&#45;&gt;CommonUtilityModule -->
<g id="edge7" class="edge">
<title>CommonOps&#45;&gt;CommonUtilityModule</title>
<path fill="none" stroke="#000000" d="M87,-122.2843C87,-143.3211 87,-175 87,-175 87,-175 336.8746,-175 336.8746,-175"/>
<polygon fill="#000000" stroke="#000000" points="336.8746,-178.5001 346.8746,-175 336.8745,-171.5001 336.8746,-178.5001"/>
</g>
</g>
</svg>
