<?xml version="1.0" encoding="UTF-8" standalone="no"?>
<!DOCTYPE svg PUBLIC "-//W3C//DTD SVG 1.1//EN"
 "http://www.w3.org/Graphics/SVG/1.1/DTD/svg11.dtd">
<!-- Generated by graphviz version 2.40.1 (20161225.0304)
 -->
<!-- Title: dependencies Pages: 1 -->
<svg width="508pt" height="284pt"
 viewBox="0.00 0.00 508.00 284.00" xmlns="http://www.w3.org/2000/svg" xmlns:xlink="http://www.w3.org/1999/xlink">
<g id="graph0" class="graph" transform="scale(1 1) rotate(0) translate(4 280)">
<title>dependencies</title>
<polygon fill="#ffffff" stroke="transparent" points="-4,4 -4,-280 504,-280 504,4 -4,4"/>
<text text-anchor="start" x="229.0091" y="-42.4" font-family="sans-serif" font-weight="bold" font-size="14.00" fill="#000000">Legend</text>
<polygon fill="#ffffb3" stroke="transparent" points="16,-10 16,-30 36,-30 36,-10 16,-10"/>
<text text-anchor="start" x="39.629" y="-15.4" font-family="sans-serif" font-size="14.00" fill="#000000"> &#160;Declarations</text>
<polygon fill="#8dd3c7" stroke="transparent" points="129,-10 129,-30 149,-30 149,-10 129,-10"/>
<text text-anchor="start" x="152.7251" y="-15.4" font-family="sans-serif" font-size="14.00" fill="#000000"> &#160;Module</text>
<polygon fill="#80b1d3" stroke="transparent" points="215,-10 215,-30 235,-30 235,-10 215,-10"/>
<text text-anchor="start" x="238.7812" y="-15.4" font-family="sans-serif" font-size="14.00" fill="#000000"> &#160;Bootstrap</text>
<polygon fill="#fdb462" stroke="transparent" points="312,-10 312,-30 332,-30 332,-10 312,-10"/>
<text text-anchor="start" x="335.6732" y="-15.4" font-family="sans-serif" font-size="14.00" fill="#000000"> &#160;Providers</text>
<polygon fill="#fb8072" stroke="transparent" points="408,-10 408,-30 428,-30 428,-10 408,-10"/>
<text text-anchor="start" x="431.7258" y="-15.4" font-family="sans-serif" font-size="14.00" fill="#000000"> &#160;Exports</text>
<g id="clust1" class="cluster">
<title>cluster_CommonUtilityModule</title>
<polygon fill="none" stroke="#000000" stroke-dasharray="1,5" points="8,-70 8,-268 492,-268 492,-70 8,-70"/>
</g>
<g id="clust2" class="cluster">
<title>cluster_CommonUtilityModule_declarations</title>
<polygon fill="none" stroke="#000000" points="216,-78 216,-130 484,-130 484,-78 216,-78"/>
</g>
<g id="clust6" class="cluster">
<title>cluster_CommonUtilityModule_exports</title>
<polygon fill="none" stroke="#000000" points="143,-208 143,-260 417,-260 417,-208 143,-208"/>
</g>
<g id="clust8" class="cluster">
<title>cluster_CommonUtilityModule_providers</title>
<polygon fill="none" stroke="#000000" points="16,-78 16,-130 208,-130 208,-78 16,-78"/>
</g>
<!-- SampleComponent -->
<g id="node1" class="node">
<title>SampleComponent</title>
<polygon fill="#ffffb3" stroke="#000000" points="475.8258,-122 352.1742,-122 352.1742,-86 475.8258,-86 475.8258,-122"/>
<text text-anchor="middle" x="414" y="-99.8" font-family="Times,serif" font-size="14.00" fill="#000000">SampleComponent</text>
</g>
<!-- CommonUtilityModule -->
<g id="node3" class="node">
<title>CommonUtilityModule</title>
<polygon fill="#8dd3c7" stroke="#000000" points="353.2274,-187 350.2274,-191 329.2274,-191 326.2274,-187 204.7726,-187 204.7726,-151 353.2274,-151 353.2274,-187"/>
<text text-anchor="middle" x="279" y="-164.8" font-family="Times,serif" font-size="14.00" fill="#000000">CommonUtilityModule</text>
</g>
<!-- SampleComponent&#45;&gt;CommonUtilityModule -->
<g id="edge1" class="edge">
<title>SampleComponent&#45;&gt;CommonUtilityModule</title>
<path fill="none" stroke="#000000" d="M352.156,-104C346.6982,-104 343.1876,-104 343.1876,-104 343.1876,-104 343.1876,-140.8939 343.1876,-140.8939"/>
<polygon fill="#000000" stroke="#000000" points="339.6877,-140.8938 343.1876,-150.8939 346.6877,-140.8939 339.6877,-140.8938"/>
</g>
<!-- SampleDirective -->
<g id="node2" class="node">
<title>SampleDirective</title>
<polygon fill="#ffffb3" stroke="#000000" points="334.0758,-122 223.9242,-122 223.9242,-86 334.0758,-86 334.0758,-122"/>
<text text-anchor="middle" x="279" y="-99.8" font-family="Times,serif" font-size="14.00" fill="#000000">SampleDirective</text>
</g>
<!-- SampleDirective&#45;&gt;CommonUtilityModule -->
<g id="edge2" class="edge">
<title>SampleDirective&#45;&gt;CommonUtilityModule</title>
<path fill="none" stroke="#000000" d="M279,-122.1061C279,-122.1061 279,-140.991 279,-140.991"/>
<polygon fill="#000000" stroke="#000000" points="275.5001,-140.9909 279,-150.991 282.5001,-140.991 275.5001,-140.9909"/>
</g>
<!-- SampleComponent  -->
<g id="node4" class="node">
<title>SampleComponent </title>
<polygon fill="#fb8072" stroke="#000000" points="409.3255,-252 282.6745,-252 282.6745,-216 409.3255,-216 409.3255,-252"/>
<text text-anchor="middle" x="346" y="-229.8" font-family="Times,serif" font-size="14.00" fill="#000000">SampleComponent </text>
</g>
<!-- CommonUtilityModule&#45;&gt;SampleComponent  -->
<g id="edge3" class="edge">
<title>CommonUtilityModule&#45;&gt;SampleComponent </title>
<path fill="none" stroke="#000000" stroke-dasharray="5,2" d="M317.8505,-187.1061C317.8505,-187.1061 317.8505,-205.991 317.8505,-205.991"/>
<polygon fill="#000000" stroke="#000000" points="314.3505,-205.9909 317.8505,-215.991 321.3505,-205.991 314.3505,-205.9909"/>
</g>
<!-- SampleDirective  -->
<g id="node5" class="node">
<title>SampleDirective </title>
<polygon fill="#fb8072" stroke="#000000" points="264.5766,-252 151.4234,-252 151.4234,-216 264.5766,-216 264.5766,-252"/>
<text text-anchor="middle" x="208" y="-229.8" font-family="Times,serif" font-size="14.00" fill="#000000">SampleDirective </text>
</g>
<!-- CommonUtilityModule&#45;&gt;SampleDirective  -->
<g id="edge4" class="edge">
<title>CommonUtilityModule&#45;&gt;SampleDirective </title>
<path fill="none" stroke="#000000" stroke-dasharray="5,2" d="M234.8372,-187.1061C234.8372,-187.1061 234.8372,-205.991 234.8372,-205.991"/>
<polygon fill="#000000" stroke="#000000" points="231.3372,-205.9909 234.8372,-215.991 238.3372,-205.991 231.3372,-205.9909"/>
</g>
<!-- JSONUtilityService -->
<g id="node6" class="node">
<title>JSONUtilityService</title>
<ellipse fill="#fdb462" stroke="#000000" cx="112" cy="-104" rx="88.0538" ry="18"/>
<text text-anchor="middle" x="112" y="-99.8" font-family="Times,serif" font-size="14.00" fill="#000000">JSONUtilityService</text>
</g>
<!-- JSONUtilityService&#45;&gt;CommonUtilityModule -->
<g id="edge5" class="edge">
<title>JSONUtilityService&#45;&gt;CommonUtilityModule</title>
<path fill="none" stroke="#000000" d="M200.6109,-104C208.9839,-104 214.4243,-104 214.4243,-104 214.4243,-104 214.4243,-140.8939 214.4243,-140.8939"/>
<polygon fill="#000000" stroke="#000000" points="210.9243,-140.8938 214.4243,-150.8939 217.9243,-140.8939 210.9243,-140.8938"/>
</g>
</g>
</svg>
